<?xml version="1.0" encoding="UTF-8" standalone="no"?>
<svg
   version="1.1"
   viewBox="0,0,24,24"
   id="svg4"
   sodipodi:docname="vukkied.svg"
   xml:space="preserve"
   inkscape:version="1.2 (dc2aedaf03, 2022-05-15)"
   xmlns:inkscape="http://www.inkscape.org/namespaces/inkscape"
   xmlns:sodipodi="http://sodipodi.sourceforge.net/DTD/sodipodi-0.dtd"
   xmlns="http://www.w3.org/2000/svg"
   xmlns:svg="http://www.w3.org/2000/svg"><defs
     id="defs8" /><sodipodi:namedview
     id="namedview6"
     pagecolor="#505050"
     bordercolor="#eeeeee"
     borderopacity="1"
     inkscape:showpageshadow="0"
     inkscape:pageopacity="0"
     inkscape:pagecheckerboard="0"
     inkscape:deskcolor="#505050"
     showgrid="false"
     inkscape:zoom="12.182861"
     inkscape:cx="-7.14118"
     inkscape:cy="25.691831"
     inkscape:window-width="1920"
     inkscape:window-height="1007"
     inkscape:window-x="0"
     inkscape:window-y="0"
     inkscape:window-maximized="1"
     inkscape:current-layer="svg4" /><path
     d="m 22.5,12.5 c 0,-1.58 -0.875,-2.95 -2.148,-3.6 0.154,-0.435 0.238,-0.905 0.238,-1.4 0,-2.21 -1.71,-3.998 -3.818,-3.998 -0.47,0 -0.92,0.084 -1.336,0.25 C 14.818,2.415 13.51,1.5 12,1.5 10.49,1.5 9.184,2.417 8.563,3.75 8.148,3.585 7.697,3.5 7.227,3.5 c -2.11,0 -3.818,1.79 -3.818,4 0,0.494 0.083,0.964 0.237,1.4 -1.272,0.65 -2.147,2.018 -2.147,3.6 0,1.495 0.782,2.798 1.942,3.486 -0.02,0.17 -0.032,0.34 -0.032,0.514 0,2.21 1.708,4 3.818,4 0.47,0 0.92,-0.086 1.335,-0.25 0.62,1.334 1.926,2.25 3.437,2.25 1.512,0 2.818,-0.916 3.437,-2.25 0.415,0.163 0.865,0.248 1.336,0.248 2.11,0 3.818,-1.79 3.818,-4 0,-0.174 -0.012,-0.344 -0.033,-0.513 1.158,-0.687 1.943,-1.99 1.943,-3.484 z"
     fill="#1da1f2"
     id="path2"
     style="fill:#00a8f3;fill-opacity:1"
     sodipodi:nodetypes="scsscscsscscsscscsscsscc" /><g
     inkscape:label="Image"
     id="g135"
     transform="matrix(0.1159266,0,0,0.11884493,4.8968689,3.9642263)"
     style="fill:#ffffff;stroke:#ffffff"><path
       id="path783"
       style="display:inline;fill:#ffffff;stroke:#ffffff"
       d="m 69.685547,13.861328 c -3.025376,-0.01107 -6.2362,0.153605 -9.255859,0.521484 -6.039367,0.735807 -11.314569,2.286883 -16.015626,4.707032 -4.701032,2.420124 -8.827255,5.707974 -11.236328,9.052734 -2.409048,3.34476 -3.101228,6.744581 -3.441406,11.671875 -0.340178,4.927294 -0.329194,11.382795 -0.488281,14.669922 -0.159087,3.287127 -0.488727,3.407821 -3.246094,1.267578 -2.757367,-2.140242 -7.942062,-6.542724 -11.017578,-8.830078 -3.075516,-2.287354 -4.040885,-2.459145 -4.904297,-2.259766 -0.8634115,0.199403 -1.6247795,0.770881 -2.1406249,1.423829 -0.5158453,0.652923 -0.7873584,1.386023 -0.7753906,2.292968 0.011968,0.906946 0.3077035,1.985906 3.7675785,5.0625 3.459853,3.076595 10.084621,8.152722 13.396484,10.689453 3.311863,2.536755 3.312238,2.5359 3.392578,3.228516 0.08034,0.692616 0.239798,2.076907 0.486328,7.167969 0.246531,5.091061 0.579417,13.889111 0.75,18.966797 0.170584,5.077685 0.178987,6.436355 0.677735,7.402339 0.498723,0.96611 1.487425,1.54095 3.15039,1.87891 1.662989,0.33797 4.001621,0.43948 5.753906,0.69727 1.75231,0.25779 2.9174,0.67039 3.626954,0.92187 0.70953,0.25148 0.962644,0.34144 1.257812,3.01953 0.295168,2.67834 0.633564,7.94591 0.830078,10.6875 0.196514,2.74183 0.251898,2.9578 0.533203,3.38867 0.281329,0.43088 0.787674,1.07741 1.433594,1.45313 0.64592,0.37571 1.42992,0.48203 2.232422,0.44336 0.802502,-0.0387 1.624543,-0.22286 2.216797,-0.60352 0.59223,-0.38065 0.956438,-0.95902 1.115234,-3.99804 0.158797,-3.03927 0.111572,-8.54039 0.05273,-11.33594 -0.05872,-2.79555 -0.130712,-2.88411 2.822265,-2.79883 2.952977,0.0853 8.931704,0.34559 12,0.51172 3.068296,0.16613 3.227702,0.23648 3.28125,3.17578 0.05355,2.9393 0.0018,8.74728 0.05664,11.89649 0.0548,3.14896 0.214585,3.64037 0.662109,4.1914 0.447549,0.55103 1.182707,1.1626 1.960938,1.5 0.778231,0.3374 1.599768,0.40131 2.273437,0.14063 0.673694,-0.26069 1.200378,-0.84619 1.611328,-1.29883 0.410975,-0.45265 0.706943,-0.77401 0.957032,-3.95313 0.250064,-3.17888 0.453758,-9.21788 0.521484,-12.31445 0.06773,-3.09657 -0.0011,-3.25084 2.349609,-3.2832 2.35069,-0.0324 7.121461,0.0579 9.865235,-0.19532 2.743749,-0.25321 3.460535,-0.84959 3.984375,-1.43554 0.523816,-0.58596 0.854337,-1.16032 0.951172,-5.025393 0.09683,-3.864978 -0.04051,-11.020489 -0.207032,-16.058594 -0.166494,-5.038105 -0.362161,-7.960751 -0.449218,-10.914062 -0.08706,-2.953312 -0.06426,-5.938598 0.0078,-7.507813 0.07231,-1.569191 0.194945,-1.720576 3.63086,-4.03125 3.43596,-2.310674 10.18593,-6.779133 14.17187,-9.759766 3.98618,-2.980608 5.20865,-4.47334 5.32227,-5.888671 0.11362,-1.415356 -0.88294,-2.755199 -2.10156,-3.388672 -1.21887,-0.633497 -2.65984,-0.560619 -4.39063,0.199219 -1.73079,0.759813 -3.75102,2.206882 -6.01758,3.986328 -2.26656,1.779421 -4.77915,3.891445 -6.39648,5.189453 -1.617283,1.297984 -2.339157,1.781965 -2.732422,2.064453 -0.393241,0.282488 -0.457857,0.362759 -0.478515,-1.619141 -0.02066,-1.981899 0.0018,-6.026909 -0.19336,-9.117187 -0.195189,-3.090278 -0.607929,-5.225326 -1.279297,-7.929688 -0.671343,-2.704338 -1.601,-5.978757 -2.8125,-8.777344 -1.211458,-2.798562 -2.705186,-5.122138 -4.607422,-6.910156 -1.902211,-1.788017 -4.21417,-3.040861 -8.771484,-3.707031 -2.278657,-0.333097 -5.119155,-0.518222 -8.144531,-0.529297 z m -5.335938,6.480469 c 0.482537,-6.27e-4 0.964729,1.16e-4 1.447266,0 0.504009,-9.6e-5 1.009638,1.6e-5 1.513672,0 0.452779,-1.2e-5 0.904617,3e-6 1.357422,0 h 1.279297 1.316406 1.427734 c 0.444028,-0.02116 0.883239,0.02075 1.322266,0.08203 0.541613,0.05901 1.058253,0.237373 1.570312,0.414063 0.446015,0.135334 0.892235,0.271896 1.345704,0.380859 0.386526,0.119832 0.775327,0.232245 1.158203,0.363281 0.429316,0.109713 0.809724,0.334871 1.179687,0.570313 0.44529,0.24678 0.845679,0.557453 1.246094,0.86914 0.411261,0.285817 0.797651,0.602608 1.189453,0.914063 0.391883,0.300408 0.720688,0.673479 1.060547,1.029297 0.446735,0.457797 0.865127,0.939132 1.255859,1.445312 0.436448,0.554148 0.774446,1.177764 1.136719,1.78125 0.305424,0.514609 0.586671,1.042713 0.845703,1.582032 0.231459,0.454066 0.377611,0.9355 0.515625,1.423828 0.140792,0.483806 0.299407,0.959963 0.40625,1.453125 0.139893,0.465366 0.197845,0.94803 0.296875,1.421875 0.0912,0.52027 0.191236,1.037954 0.291016,1.55664 0.07394,0.47761 0.201462,0.944673 0.289062,1.419922 0.04563,0.393666 0.144998,0.775728 0.210938,1.166016 0.07356,0.519015 0.101247,1.043114 0.123047,1.566406 -0.0042,0.447495 0.06743,0.890262 0.115234,1.333984 0.06093,0.602308 0.08196,1.207667 0.09766,1.8125 0.01423,0.659627 0.01838,1.318788 0.02148,1.978516 -0.02445,0.566978 0.03794,1.128651 0.0957,1.691406 0.03993,0.416298 0.137205,0.824387 0.197265,1.238282 0.02965,0.418914 0.115884,0.83048 0.183594,1.24414 0.07713,0.51405 0.09917,1.03205 0.119141,1.550781 0.01546,0.436918 0.02159,0.87538 0.02539,1.3125 0.0031,0.426775 0.0033,0.852539 0.0039,1.279297 5.1e-4,0.489435 -8.3e-5,0.979341 0,1.46875 6.9e-5,0.473425 -1.1e-5,0.946524 0,1.419922 -0.04214,0.560551 -0.08557,1.123699 -0.169922,1.679688 -0.0653,0.442964 -0.168982,0.877252 -0.271485,1.3125 -0.07287,0.389446 -0.197532,0.765241 -0.263672,1.15625 -0.07448,0.49096 -0.15834,0.97958 -0.21875,1.472656 -0.08444,0.607294 -0.190491,1.210165 -0.304687,1.8125 -0.121361,0.494723 -0.226965,0.994285 -0.373047,1.482422 -0.09465,0.29372 -0.141548,0.598402 -0.173828,0.904297 -0.03356,0.35548 -0.03852,0.711577 -0.04492,1.068359 -0.0064,0.467262 -0.0085,0.935046 -0.0098,1.402344 -0.0011,0.506057 1.79e-4,1.011494 0,1.517578 -1.17e-4,0.497462 -0.0019,0.994725 -0.002,1.492187 -0.02262,0.362235 0.01383,0.7166 0.0625,1.074219 0.07309,0.364081 0.05368,0.741739 0.121094,1.105469 0.08981,0.454441 0.137515,0.915499 0.171875,1.376953 0.04796,0.472862 0.01533,0.95186 0.06641,1.423828 0.07031,0.417727 0.07807,0.84542 0.154297,1.261719 0.06053,0.46208 0.200664,0.908247 0.326172,1.355469 0.128614,0.43148 0.200054,0.875425 0.246094,1.322265 0.04162,0.477544 0.04563,0.956557 0.05273,1.435547 0.0055,0.415394 0.0066,0.830669 0.0078,1.246094 9.14e-4,0.415523 0.0018,0.830545 0.002,1.246094 -0.02052,0.479052 0.02364,0.95541 0.06836,1.43164 0.05004,0.503447 0.08549,1.006415 0.109375,1.511719 0.0176,0.495493 0.03676,0.993095 0.0098,1.488281 -0.04374,0.419329 -0.09241,0.837263 -0.123047,1.257813 -0.01215,0.523497 -0.08351,1.042644 -0.140625,1.5625 -0.04642,0.526092 -0.15825,1.041933 -0.21875,1.566406 -0.02957,0.48733 -0.115444,0.968461 -0.183594,1.451172 -0.05368,0.441118 -0.0698,0.886292 -0.08594,1.330078 0.0018,0.423048 -0.02429,0.839334 -0.119141,1.251953 -0.121838,0.516526 -0.448989,0.881496 -0.894531,1.146484 -0.369185,0.18474 -0.778605,0.220081 -1.183594,0.244141 -0.439456,0.01978 -0.878543,0.02094 -1.318359,0.02344 -0.540592,0.0023 -1.082476,0.0034 -1.623047,0.0039 -0.4383,3.54e-4 -0.876179,-6.1e-5 -1.314453,0 -0.490216,5e-5 -0.980513,-9e-6 -1.470703,0 -0.50629,0.02335 -1.007794,-0.05127 -1.509766,-0.103516 -0.437708,-0.04664 -0.876674,-0.06931 -1.316406,-0.08398 -0.428144,-0.01263 -0.856883,-0.01623 -1.285156,-0.01953 -0.499564,-0.0027 -0.998503,-0.0034 -1.498047,-0.0039 -0.488912,-4.19e-4 -0.977911,-0.0019 -1.466797,-0.002 -0.493508,-5.8e-5 -0.986961,1.1e-5 -1.480469,0 -0.41621,-8e-6 -0.831837,2e-6 -1.248047,0 -0.305915,-0.0035 -0.609009,0.0655 -0.912109,0.103516 -0.447073,0.04739 -0.896597,0.06164 -1.345703,0.07422 -0.427812,0.01091 -0.855278,0.01353 -1.283204,0.01563 -0.444513,0.0018 -0.889442,0.0016 -1.333984,0.002 -0.526599,0.04932 -1.052227,0.103962 -1.580078,0.138672 -0.629307,0.03669 -1.260436,0.05036 -1.890625,0.06055 -0.566594,0.02656 -1.129367,-0.0027 -1.693359,-0.05469 -0.480109,-0.02866 -0.954896,-0.09613 -1.429688,-0.169922 -0.374383,-0.06072 -0.752579,-0.0958 -1.130859,-0.11914 -0.408793,-0.01175 -0.813543,-0.02581 -1.21875,-0.08398 -0.340727,-0.05595 -0.683043,-0.0944 -1.027344,-0.119141 -0.445264,-0.03727 -0.887059,-0.113643 -1.332031,-0.158203 -0.556301,-0.03979 -1.111369,-0.06247 -1.666016,-0.123047 -0.488374,-0.05867 -0.977654,-0.106305 -1.46875,-0.134765 -0.522842,-0.05751 -1.044121,-0.135018 -1.568359,-0.179688 -0.620871,-0.04509 -1.243045,-0.05205 -1.865235,-0.06055 -0.757891,-0.003 -1.513559,-0.07524 -2.269531,-0.123046 -0.684913,-0.0509 -1.370486,-0.118894 -2.050781,-0.214844 -0.526074,-0.09641 -1.055313,-0.167364 -1.587891,-0.214844 -0.509159,-0.04022 -1.02074,-0.04959 -1.53125,-0.05859 -0.465536,-0.0071 -0.930904,-0.0097 -1.396484,-0.01172 -0.355977,-0.0013 -0.712406,-0.0017 -1.068359,-0.002 -0.606505,0.04192 -1.109084,-0.150958 -1.556641,-0.552734 -0.311061,-0.318296 -0.46448,-0.725388 -0.605469,-1.136719 -0.127936,-0.356126 -0.190182,-0.728978 -0.232422,-1.103515 -0.05152,-0.416461 0.02388,-0.832051 0.0625,-1.246094 0.03372,-0.387575 0.04373,-0.775321 0.05273,-1.164062 0.0083,-0.39379 0.0097,-0.787805 0.01172,-1.181641 0.0016,-0.365476 0.0036,-0.732203 0.0039,-1.097656 3.01e-4,-0.42171 -4.2e-5,-0.84394 0,-1.265625 3.7e-5,-0.47287 -7e-6,-0.945125 0,-1.417969 5e-6,-0.459756 -10e-7,-0.919176 0,-1.378906 0.02184,-0.448285 -0.01949,-0.890973 -0.06641,-1.335938 -0.0524,-0.475561 -0.08706,-0.953872 -0.111328,-1.431641 -0.07328,-0.424661 -0.125359,-0.851984 -0.162109,-1.28125 -0.03807,-0.54287 -0.0545,-1.086868 -0.06641,-1.630859 0.01376,-0.467665 -0.05364,-0.928895 -0.103516,-1.392578 -0.05532,-0.492948 -0.08015,-0.9889 -0.09766,-1.484375 0.0081,-0.375067 -0.04089,-0.745746 -0.08398,-1.117188 -0.04241,-0.365683 -0.06069,-0.733846 -0.07422,-1.101562 -0.02853,-0.431305 -3.08e-4,-0.858699 0.04883,-1.287109 0.06928,-0.362547 0.149042,-0.721414 0.195312,-1.087891 0.02289,-0.386135 0.10767,-0.76442 0.16211,-1.146484 0.04841,-0.41039 0.145404,-0.81252 0.208984,-1.220704 0.08036,-0.358311 0.166517,-0.71605 0.216797,-1.080078 0.05568,-0.420855 0.130656,-0.839227 0.21289,-1.255859 0.101967,-0.432035 0.139926,-0.872679 0.166016,-1.314453 0.06599,-0.61451 0.138496,-1.227913 0.191406,-1.84375 0.0362,-0.434246 0.05383,-0.869172 0.06445,-1.304688 0.01004,-0.498281 0.01177,-0.997729 0.01367,-1.496093 0.0014,-0.428349 0.0016,-0.856806 0.002,-1.285157 2.48e-4,-0.381497 -1.7e-5,-0.763008 0,-1.144531 3.6e-5,-0.39544 0,-0.79008 0,-1.185547 4e-6,-0.391294 0,-0.782508 0,-1.173828 v -1.132812 c -0.01089,-0.37327 0.0206,-0.749088 -0.01562,-1.121094 -0.05199,-0.460915 -0.09909,-0.922291 -0.134766,-1.384766 -0.0031,-0.318603 -0.0402,-0.625614 -0.09766,-0.9375 -0.06699,-0.348107 -0.103524,-0.701348 -0.126954,-1.054687 -0.04441,-0.491464 0.0279,-0.980135 0.07227,-1.46875 0.04017,-0.449042 0.06549,-0.899153 0.08203,-1.34961 0.01213,-0.350851 0.01653,-0.703636 0.01953,-1.054687 0.0014,-0.216987 -2.28e-4,-0.109718 0.002,-0.322266 7.2e-4,-0.139019 0.01129,-0.266248 0.0293,-0.386718 -0.117918,-0.270151 -0.174977,-0.620254 -0.126953,-1.056641 0.06358,-0.577824 0.09812,-1.157957 0.128906,-1.738281 0.02623,-0.496225 0.03762,-0.993439 0.04492,-1.490235 -0.01457,-0.529665 0.02305,-1.054728 0.08594,-1.580078 0.03239,-0.450832 0.133531,-0.892178 0.212891,-1.335937 0.05155,-0.338368 0.143032,-0.667533 0.195312,-1.00586 0.04618,-0.342394 0.1381,-0.676455 0.19336,-1.017578 0.03297,-0.365035 0.115194,-0.721533 0.177734,-1.082031 0.03855,-0.337812 0.118718,-0.668834 0.173828,-1.003906 0.05184,-0.344824 0.05784,-0.694627 0.09375,-1.041016 0.03592,-0.414784 0.138064,-0.811922 0.28711,-1.199219 0.15663,-0.369235 0.40415,-0.680798 0.658203,-0.986328 0.209246,-0.231187 0.389205,-0.485308 0.578125,-0.732422 0.259553,-0.325868 0.577704,-0.596681 0.890625,-0.86914 0.330606,-0.266571 0.587338,-0.590319 0.979232,-0.745902 0.182186,-0.142539 0.484993,-0.151952 0.671158,-0.289255 0.03163,-0.03347 0.06106,-0.06921 0.09375,-0.101562 l 0.002,-0.002 c 0.05335,-0.06375 0.106101,-0.128032 0.16211,-0.189453 0.08648,-0.09484 0.173576,-0.164529 0.257812,-0.210938 h 0.002 c 0.15081,-0.141048 0.304881,-0.279082 0.464844,-0.410156 0.01804,-0.01478 0.03688,-0.02791 0.05469,-0.04102 0.07405,-0.110002 0.144707,-0.222242 0.21875,-0.332031 0.294624,-0.418504 0.67946,-0.705127 1.146484,-0.90625 0.285554,-0.08746 0.53354,-0.240848 0.783203,-0.398438 0.395295,-0.264805 0.806393,-0.500247 1.226563,-0.722656 0.372772,-0.201849 0.761595,-0.373487 1.132812,-0.578125 0.382124,-0.204289 0.752112,-0.431619 1.130859,-0.642578 0.412982,-0.2101 0.835193,-0.401073 1.261719,-0.582031 0.402204,-0.201397 0.833494,-0.335521 1.246094,-0.511719 0.480304,-0.178492 0.950927,-0.380151 1.419922,-0.585937 0.437256,-0.205257 0.87672,-0.40299 1.314453,-0.607422 0.517732,-0.23635 1.038963,-0.462585 1.572266,-0.66211 0.553812,-0.245616 1.124727,-0.440746 1.697265,-0.636718 0.453619,-0.160479 0.897264,-0.341266 1.363281,-0.464844 0.487266,-0.08639 0.97544,-0.163531 1.464844,-0.238281 0.654026,-0.08607 1.313958,-0.119362 1.972656,-0.144532 0.593242,-0.02031 1.185793,-0.0279 1.779297,-0.0332 0.541492,-0.0042 1.08352,-0.0051 1.625,-0.0059 z m -22.082031,7.123047 c 0.158095,0.0055 0.212698,0.197907 0.0059,0.332031 -0.658277,0.426433 -1.304717,0.870295 -1.955079,1.308594 -0.400106,0.271771 -0.803916,0.536483 -1.208984,0.800781 -0.271238,0.176973 -0.450923,-0.09647 -0.179687,-0.273438 0.403705,-0.263395 0.808265,-0.52796 1.207031,-0.798828 0.651375,-0.438975 1.297732,-0.883451 1.957031,-1.310546 0.05097,-0.03302 0.0985,-0.05162 0.140625,-0.05664 0.01141,-0.0014 0.02266,-0.0023 0.0332,-0.002 z"
       sodipodi:nodetypes="ccccssssccsccssscssscssscsscssscsssssscssscscccscssssscscssccccssccccccccccccccccccccccccccccccscccccccccccccccccccccccccccccccccccsccccccsccccccccccccccccccccccccccccccsscccccccscccccccccccccssccccccccccscccccccccccccccccsccsccccccccccccccccccccccsscsccc"
       inkscape:label="bodyoutline" /><path
       style="display:inline;fill:#ffffff;fill-opacity:1;stroke:#ffffff;stroke-width:0.193577"
       d="m 60.059234,99.720795 c -0.107514,-0.04521 -1.251067,-0.173856 -2.541229,-0.285881 -1.290163,-0.112021 -3.665234,-0.334087 -5.277938,-0.49348 -1.612703,-0.159392 -4.471586,-0.374317 -6.353073,-0.47761 -1.881486,-0.103296 -3.94868,-0.273915 -4.59376,-0.37916 -0.645081,-0.105246 -2.238591,-0.191855 -3.541132,-0.192466 -2.676693,-0.0012 -3.239569,-0.22441 -3.514195,-1.393227 -0.08021,-0.341366 -0.154704,-3.208533 -0.165547,-6.371481 -0.01267,-3.692984 -0.147413,-7.294184 -0.376575,-10.063922 -0.400923,-4.845692 -0.350788,-6.297867 0.340833,-9.872228 0.772551,-3.992623 0.977767,-7.299098 0.800618,-12.899682 -0.08573,-2.71031 -0.141475,-7.513648 -0.123881,-10.674084 0.03045,-5.469963 0.06017,-5.900327 0.618097,-8.950885 0.322357,-1.762552 0.588036,-3.446718 0.590397,-3.742594 0.0024,-0.295876 0.167098,-0.889465 0.366079,-1.31909 0.45909,-0.991232 2.330283,-2.881588 3.208605,-3.241468 0.369101,-0.151234 1.056301,-0.69478 1.527115,-1.207882 1.429082,-1.557442 6.371129,-4.036675 13.687765,-6.866621 2.603209,-1.006874 2.736312,-1.036452 5.5797,-1.23992 1.602083,-0.114641 5.504017,-0.172182 8.670968,-0.127871 l 5.758091,0.08057 2.175791,0.676288 c 2.461136,0.764982 3.798751,1.547688 5.789969,3.387999 2.018378,1.865412 3.824135,4.753712 4.511182,7.215613 0.893996,3.203462 1.502537,7.111465 1.611239,10.34726 0.0602,1.792336 0.291001,4.723614 0.512869,6.51395 0.324103,2.615304 0.382649,3.915275 0.297848,6.613433 -0.05806,1.847054 -0.194731,3.637113 -0.30373,3.977904 -0.109001,0.340796 -0.338519,1.462204 -0.510042,2.492019 -0.171523,1.029817 -0.49568,2.62659 -0.72035,3.548384 -0.371312,1.523439 -0.398602,2.055613 -0.29983,5.846659 0.125333,4.810546 0.361309,7.537114 0.79405,9.17477 0.237498,0.898797 0.316827,2.451921 0.356996,6.989496 0.0443,5.004668 -0.0066,6.278526 -0.358203,8.961771 -0.297859,2.273207 -0.499754,3.216004 -0.7389,3.450487 -0.300822,0.294959 -1.330581,0.323494 -12.00191,0.332594 -6.420069,0.0055 -12.55251,0.06903 -13.627646,0.141255 -1.075136,0.07222 -2.042757,0.09432 -2.150271,0.04911 z"
       id="path2763"
       inkscape:label="bodycolor" /><path
       id="path2913"
       style="display:inline;fill:#ffffff;fill-opacity:1;stroke:#ffffff"
       inkscape:label="faceplateoutline"
       d="m 63.853516,30.601562 c -2.724835,-0.0024 -4.465469,0.04238 -6.382813,0.423829 -1.917344,0.38145 -4.011604,1.099498 -5.816406,1.699218 -1.804802,0.599721 -3.319823,1.082318 -4.685547,1.869141 -1.365724,0.786823 -2.581199,1.877666 -3.576172,3.712891 -0.994973,1.835224 -1.769995,4.412489 -2.175781,7.138671 -0.405786,2.726183 -0.442924,5.601278 -0.40625,8.173829 0.03667,2.57255 0.146353,4.842566 0.458984,6.679687 0.312631,1.837121 0.828039,3.241309 1.695313,4.5 0.867274,1.258692 2.085847,2.372716 3.271484,3.164063 1.185637,0.791347 2.338106,1.259502 3.626953,1.546875 1.288847,0.287373 2.715611,0.394994 4.251953,0.28125 1.536342,-0.113745 3.183598,-0.447875 4.978516,-0.72461 1.794918,-0.276735 3.736123,-0.496067 5.279297,-0.720703 1.543173,-0.224636 2.688079,-0.455443 4.011719,-0.820312 1.323639,-0.36487 2.825948,-0.864093 3.84375,-1.203125 1.017801,-0.339033 1.550741,-0.516775 2.455078,-1.460938 0.904337,-0.944163 2.182018,-2.655055 3.652344,-4.777344 1.470325,-2.122289 3.133703,-4.655582 4.046874,-6.802734 0.913172,-2.147152 1.074992,-3.908874 1.087891,-5.787109 0.0129,-1.878236 -0.124866,-3.873283 -0.445312,-5.769532 -0.320447,-1.896249 -0.824084,-3.692932 -1.314453,-5.035156 -0.49037,-1.342224 -0.966653,-2.229379 -1.845704,-3.109375 -0.87905,-0.879996 -2.161578,-1.752364 -3.207031,-2.230469 -1.045453,-0.478104 -1.854401,-0.562223 -4.113281,-0.628906 -2.25888,-0.06668 -5.966572,-0.116744 -8.691406,-0.119141 z m 7.189453,6.167969 c 0.188807,5e-4 0.377613,-4.47e-4 0.566406,0.002 0.15871,0.0025 0.316592,0.005 0.474609,0.02148 0.148456,0.0178 0.296563,0.04479 0.433594,0.107422 0.132956,0.05918 0.259887,0.130438 0.384766,0.205078 0.150433,0.09074 0.286619,0.199779 0.425781,0.30664 0.141042,0.114552 0.286123,0.224901 0.421875,0.345703 0.126994,0.113013 0.250294,0.229963 0.367188,0.353516 0.12254,0.13308 0.247448,0.264934 0.353515,0.41211 0.116966,0.146102 0.228612,0.295355 0.337891,0.447265 0.09844,0.138887 0.195738,0.279073 0.296875,0.416016 0.115598,0.165467 0.222952,0.335355 0.310547,0.517578 0.08409,0.174331 0.16212,0.352053 0.24414,0.527344 0.08978,0.206175 0.168163,0.416405 0.251953,0.625 0.08432,0.219662 0.167123,0.440067 0.226563,0.667968 0.03434,0.131346 0.05778,0.266524 0.08984,0.398438 0.03139,0.120823 0.07895,0.236331 0.109375,0.357422 0.03315,0.131091 0.06016,0.264171 0.08789,0.396484 0.02657,0.138889 0.04833,0.278615 0.07227,0.417969 0.02511,0.154704 0.05087,0.309278 0.07031,0.464844 0.01514,0.140261 0.03668,0.278649 0.05859,0.417968 0.02305,0.137522 0.04729,0.274262 0.06836,0.41211 0.0205,0.127231 0.03713,0.255938 0.07813,0.378906 0.02593,0.111264 0.05811,0.221609 0.09961,0.328125 0.05044,0.128132 0.09956,0.255638 0.128906,0.390625 0.02982,0.13852 0.06581,0.277572 0.07031,0.419922 5.6e-4,0.114238 -0.01395,0.227557 -0.03516,0.339844 -0.01971,0.102461 -0.04258,0.204278 -0.05078,0.308593 -0.0059,0.148915 4.06e-4,0.296401 0.0039,0.445313 -0.0091,0.144187 -0.02305,0.289359 -0.03125,0.433594 -8e-4,0.204801 -0.0024,0.408502 -0.0059,0.613281 -0.0038,0.156022 -0.0092,0.311672 -0.02734,0.466797 -0.02278,0.183785 -0.05583,0.367832 -0.111328,0.544922 -0.06297,0.217657 -0.14009,0.43102 -0.251953,0.628906 -0.105954,0.188645 -0.204154,0.381878 -0.310547,0.570312 -0.112369,0.205753 -0.218161,0.414509 -0.355469,0.605469 -0.145326,0.209143 -0.306804,0.407242 -0.445312,0.621094 -0.148009,0.223783 -0.308538,0.43798 -0.458984,0.660156 -0.172063,0.242625 -0.353362,0.480089 -0.525391,0.722656 -0.150383,0.244677 -0.284364,0.497962 -0.421875,0.75 -0.140084,0.268891 -0.269471,0.544056 -0.414063,0.810547 -0.106455,0.18131 -0.219389,0.358208 -0.335937,0.533203 -0.128245,0.181722 -0.252436,0.366634 -0.347656,0.56836 -0.148093,0.28367 -0.297798,0.570308 -0.53125,0.794922 -0.191063,0.198525 -0.38821,0.392628 -0.492188,0.654297 -0.10606,0.22504 -0.237349,0.435509 -0.375,0.642578 -0.143874,0.241112 -0.281739,0.486225 -0.439453,0.71875 -0.173386,0.248699 -0.35904,0.488603 -0.574219,0.703125 -0.192121,0.191373 -0.397045,0.367227 -0.61914,0.523437 -0.215126,0.163544 -0.430154,0.324457 -0.660157,0.466797 -0.204414,0.1396 -0.410371,0.277447 -0.623047,0.404297 -0.212645,0.128662 -0.42529,0.257242 -0.648437,0.367187 -0.198524,0.103842 -0.406511,0.189518 -0.625,0.242188 -0.282599,0.06948 -0.567021,0.127657 -0.849609,0.197265 -0.348699,0.0852 -0.700829,0.160524 -1.044922,0.263672 -0.39733,0.119217 -0.796653,0.232224 -1.19336,0.353516 -0.401039,0.121284 -0.800092,0.24724 -1.207031,0.347656 -0.429385,0.101923 -0.862632,0.19249 -1.294922,0.28125 -0.408903,0.08554 -0.819354,0.15645 -1.226562,0.25 -0.341987,0.07537 -0.685416,0.15237 -1.029297,0.21875 -0.384074,0.07403 -0.767375,0.155327 -1.158203,0.185547 -0.393331,0.03405 -0.786736,0.05469 -1.181641,0.05859 -0.368098,0.01284 -0.735219,0.03326 -1.103516,0.03906 -0.430567,0.0085 -0.862373,0.02054 -1.292968,0.02734 -0.359655,-0.0019 -0.718567,-0.0025 -1.078125,-0.01172 -0.283153,-0.0078 -0.566619,-0.02095 -0.84961,-0.0332 -0.229832,-0.0011 -0.459652,-0.0016 -0.689453,-0.0059 -0.24299,-0.005 -0.485991,-0.01278 -0.728515,-0.0293 -0.204069,-0.01516 -0.407029,-0.02759 -0.611329,-0.03906 -0.179156,-0.01681 -0.358116,-0.04147 -0.533203,-0.08398 -0.138709,-0.02955 -0.277541,-0.06039 -0.408203,-0.117187 -0.140222,-0.06041 -0.274717,-0.132001 -0.404297,-0.212891 -0.125284,-0.07866 -0.247567,-0.163807 -0.36914,-0.248047 -0.113728,-0.07664 -0.223756,-0.158397 -0.341797,-0.228515 -0.115393,-0.07497 -0.227407,-0.153697 -0.328125,-0.248047 -0.113801,-0.100314 -0.210396,-0.212852 -0.285156,-0.345703 -0.07884,-0.11962 -0.148562,-0.24413 -0.207032,-0.375 -0.04664,-0.112171 -0.09125,-0.227221 -0.136718,-0.339844 -0.05233,-0.123436 -0.115692,-0.240695 -0.169922,-0.363282 -0.03866,-0.09882 -0.07138,-0.200383 -0.105469,-0.300781 -0.07913,-0.04455 -0.140703,-0.149894 -0.140625,-0.318359 2.4e-5,-0.05164 -4.6e-5,-0.102657 0,-0.154297 1.34e-4,-0.14114 -5.74e-4,-0.282689 0,-0.423828 8e-4,-0.159404 0.0028,-0.319138 0.0059,-0.478516 0.0046,-0.205006 0.01005,-0.408636 0.02344,-0.613281 0.01693,-0.258734 0.0431,-0.516589 0.05859,-0.775391 0.01432,-0.233651 0.02042,-0.469392 0.0332,-0.703125 0.01633,-0.252776 0.03541,-0.504355 0.03711,-0.757812 0.0112,-0.329722 0.02587,-0.659026 0.04687,-0.988281 0.01152,-0.291122 0.02858,-0.582409 0.04883,-0.873047 0.0124,-0.293858 0.03222,-0.586882 0.04102,-0.88086 0.01099,-0.363275 0.02818,-0.726318 0.02148,-1.089843 -0.0042,-0.486942 -0.0085,-0.974181 -0.02344,-1.460938 -0.0097,-0.287637 -0.02022,-0.575445 -0.01172,-0.863281 0.0035,-0.177673 0.0091,-0.355891 0.02148,-0.533203 0.01604,-0.237712 0.03962,-0.474881 0.05078,-0.712891 0.01397,-0.236385 0.03416,-0.472128 0.03906,-0.708984 0.01054,-0.200152 0.03158,-0.399564 0.04297,-0.59961 0.01404,-0.236581 0.03594,-0.473085 0.05859,-0.708984 0.02266,-0.262399 0.02921,-0.523918 0.03711,-0.787109 0.0086,-0.187859 0.02478,-0.376279 0.02148,-0.564453 3e-4,-0.167461 0.002,-0.334502 0.0039,-0.501954 0.0023,-0.168538 0.0046,-0.337524 0.01367,-0.505859 0.01207,-0.200812 0.02819,-0.401848 0.05273,-0.601563 0.0203,-0.152886 0.03394,-0.306726 0.07031,-0.457031 0.02171,-0.137382 0.04219,-0.276143 0.08008,-0.410156 0.04165,-0.137407 0.08118,-0.276157 0.166016,-0.394531 0.08019,-0.118187 0.161306,-0.236769 0.253906,-0.345703 0.102631,-0.12939 0.209456,-0.25613 0.324219,-0.375 0.104305,-0.10691 0.213711,-0.208161 0.324219,-0.308594 0.119196,-0.110611 0.237624,-0.221967 0.355469,-0.333985 0.132318,-0.129608 0.262057,-0.26327 0.412109,-0.373046 0.165061,-0.116493 0.334497,-0.226979 0.511719,-0.324219 0.187753,-0.105853 0.381761,-0.200036 0.572265,-0.300781 0.221799,-0.113814 0.442614,-0.228654 0.65625,-0.357422 0.239814,-0.13081 0.473818,-0.270662 0.710938,-0.40625 0.233943,-0.138386 0.461494,-0.286949 0.705078,-0.408203 0.17879,-0.0888 0.363509,-0.167179 0.550781,-0.236329 0.236176,-0.08407 0.475722,-0.161548 0.716797,-0.230468 0.274178,-0.0739 0.545411,-0.154192 0.81836,-0.232422 0.2378,-0.07294 0.474165,-0.151301 0.705078,-0.244141 0.147017,-0.05454 0.292515,-0.109342 0.439453,-0.164062 0.193285,-0.07275 0.389566,-0.141479 0.58789,-0.199219 0.189204,-0.05903 0.378184,-0.119631 0.566407,-0.181641 0.229914,-0.07195 0.461292,-0.136159 0.695312,-0.193359 0.208327,-0.05395 0.414427,-0.113918 0.621094,-0.173828 0.226629,-0.05262 0.457485,-0.08672 0.689453,-0.105469 0.243312,-0.02404 0.486771,-0.0428 0.730469,-0.0625 0.307373,-0.015 0.614014,-0.03142 0.921875,-0.03125 0.393061,-0.0076 0.786724,-0.01769 1.179687,-0.0293 0.36207,-0.0077 0.723805,-0.0025 1.085938,-0.0039 0.42968,-6e-6 0.859382,2.8e-5 1.289062,0 0.431406,-3.4e-5 0.863518,2.05e-4 1.294922,0 0.332085,-1e-4 0.664011,-6.53e-4 0.996094,-0.002 0.285914,-0.0013 0.571555,-0.0041 0.857422,-0.0098 0.352215,-0.0072 0.704795,-0.01488 1.05664,-0.0332 0.311657,-0.0144 0.622496,-0.01885 0.933594,-0.04297 0.19017,-0.01901 0.379541,-0.05086 0.56836,-0.08008 0.192796,-0.03106 0.386241,-0.0603 0.582031,-0.0625 z"
       sodipodi:nodetypes="ssssssssssssssssssssssssssccccccscccccccccccccccccccccccccccccccccccccccccccccccccccccccccccccccccccccccccssccsccccccccccccccccccccccccccccccccccccccccccccccscccccccc" /><path
       style="display:inline;fill:#ffffff;fill-opacity:1;stroke:#ffffff;stroke-width:0.0495732"
       d="m 51.878396,63.380815 c -1.079447,-0.0399 -1.467362,-0.08688 -1.89987,-0.230096 -0.287414,-0.09517 -1.331797,-0.775507 -1.595907,-1.039617 -0.170349,-0.170349 -0.634773,-1.052472 -0.741643,-1.408669 -0.02045,-0.06816 -0.0822,-0.198251 -0.137216,-0.289085 -0.09442,-0.155877 -0.09847,-0.22269 -0.07225,-1.189757 0.01528,-0.563534 0.05156,-1.42615 0.08062,-1.916925 0.155533,-2.626899 0.202507,-3.95257 0.202322,-5.709861 -1.8e-4,-1.712142 0.08118,-3.80205 0.175652,-4.511804 0.01522,-0.114329 0.04781,-0.850492 0.07243,-1.635917 0.04448,-1.419227 0.118117,-2.106622 0.272554,-2.544343 0.115885,-0.328453 0.54352,-0.852964 1.173113,-1.438867 0.692487,-0.644434 0.645349,-0.611977 1.850538,-1.274156 0.545305,-0.299613 1.244609,-0.691418 1.554008,-0.870679 0.564183,-0.326878 0.646392,-0.357766 2.510998,-0.94342 0.299918,-0.0942 0.868539,-0.286554 1.263603,-0.427452 0.799411,-0.285105 2.097187,-0.660756 2.553536,-0.739139 0.737115,-0.126608 1.872245,-0.164388 6.122295,-0.203765 3.858655,-0.03575 4.613674,-0.05443 5.056471,-0.125069 0.375456,-0.0599 0.727752,-0.07771 1.264117,-0.0639 0.716318,0.01844 0.754524,0.02477 1.041368,0.17262 0.573722,0.295716 1.275725,0.885132 1.755178,1.473682 1.222773,1.50101 1.795688,2.925522 2.184321,5.431154 0.09316,0.600625 0.219524,1.207682 0.309574,1.487197 0.170704,0.52986 0.175298,0.60938 0.09745,1.686848 -0.03053,0.422612 -0.05625,0.971166 -0.05714,1.219008 -0.0036,1.010001 -0.393848,1.861399 -1.667878,3.63917 -0.836621,1.167412 -0.925995,1.3077 -1.326439,2.082076 -0.190342,0.368081 -0.450092,0.825394 -0.577223,1.016251 -0.127132,0.190857 -0.34019,0.543701 -0.473464,0.784098 -0.133273,0.240397 -0.382395,0.592616 -0.553605,0.78271 -0.171209,0.190095 -0.378041,0.477861 -0.459627,0.639481 -0.211709,0.419393 -0.807371,1.355273 -1.080779,1.698077 -0.2951,0.370001 -0.844728,0.818113 -1.692532,1.379924 -1.004883,0.6659 -1.403171,0.842355 -2.446743,1.083988 -0.485395,0.112391 -1.377713,0.351297 -1.982929,0.530903 -1.485257,0.440771 -1.632655,0.477741 -3.256829,0.816854 -2.182736,0.455738 -2.612116,0.535494 -3.172688,0.589326 -0.685975,0.06587 -4.991004,0.09922 -6.345375,0.04916 z"
       id="path3031"
       inkscape:label="faceplatecolor" /></g></svg>
